<mxfile host="Electron" agent="Mozilla/5.0 (Windows NT 10.0; Win64; x64) AppleWebKit/537.36 (KHTML, like Gecko) draw.io/24.7.8 Chrome/128.0.6613.36 Electron/32.0.1 Safari/537.36" version="24.7.8">
  <diagram id="C5RBs43oDa-KdzZeNtuy" name="Page-1">
    <mxGraphModel dx="712" dy="828" grid="1" gridSize="10" guides="1" tooltips="1" connect="1" arrows="1" fold="1" page="1" pageScale="1" pageWidth="827" pageHeight="1169" math="0" shadow="0">
      <root>
        <mxCell id="WIyWlLk6GJQsqaUBKTNV-0" />
        <mxCell id="WIyWlLk6GJQsqaUBKTNV-1" parent="WIyWlLk6GJQsqaUBKTNV-0" />
        <mxCell id="gsCkisf12Tj-iJhVvP90-73" value="Rectangle" style="swimlane;fontStyle=1;align=center;verticalAlign=top;childLayout=stackLayout;horizontal=1;startSize=26;horizontalStack=0;resizeParent=1;resizeParentMax=0;resizeLast=0;collapsible=1;marginBottom=0;whiteSpace=wrap;html=1;" parent="WIyWlLk6GJQsqaUBKTNV-1" vertex="1">
          <mxGeometry x="360" y="280" width="160" height="110" as="geometry" />
        </mxCell>
        <mxCell id="gsCkisf12Tj-iJhVvP90-74" value="+ w: int&lt;div&gt;+ h: int&lt;/div&gt;&lt;div&gt;&lt;br&gt;&lt;/div&gt;" style="text;strokeColor=none;fillColor=none;align=left;verticalAlign=top;spacingLeft=4;spacingRight=4;overflow=hidden;rotatable=0;points=[[0,0.5],[1,0.5]];portConstraint=eastwest;whiteSpace=wrap;html=1;" parent="gsCkisf12Tj-iJhVvP90-73" vertex="1">
          <mxGeometry y="26" width="160" height="44" as="geometry" />
        </mxCell>
        <mxCell id="gsCkisf12Tj-iJhVvP90-75" value="" style="line;strokeWidth=1;fillColor=none;align=left;verticalAlign=middle;spacingTop=-1;spacingLeft=3;spacingRight=3;rotatable=0;labelPosition=right;points=[];portConstraint=eastwest;strokeColor=inherit;" parent="gsCkisf12Tj-iJhVvP90-73" vertex="1">
          <mxGeometry y="70" width="160" height="8" as="geometry" />
        </mxCell>
        <mxCell id="gsCkisf12Tj-iJhVvP90-76" value="+ area() : double" style="text;strokeColor=none;fillColor=none;align=left;verticalAlign=top;spacingLeft=4;spacingRight=4;overflow=hidden;rotatable=0;points=[[0,0.5],[1,0.5]];portConstraint=eastwest;whiteSpace=wrap;html=1;" parent="gsCkisf12Tj-iJhVvP90-73" vertex="1">
          <mxGeometry y="78" width="160" height="32" as="geometry" />
        </mxCell>
        <mxCell id="gsCkisf12Tj-iJhVvP90-77" value="Shape" style="swimlane;fontStyle=1;align=center;verticalAlign=top;childLayout=stackLayout;horizontal=1;startSize=26;horizontalStack=0;resizeParent=1;resizeParentMax=0;resizeLast=0;collapsible=1;marginBottom=0;whiteSpace=wrap;html=1;" parent="WIyWlLk6GJQsqaUBKTNV-1" vertex="1">
          <mxGeometry x="680" y="120" width="160" height="86" as="geometry" />
        </mxCell>
        <mxCell id="gsCkisf12Tj-iJhVvP90-78" value="+ res: double" style="text;strokeColor=none;fillColor=none;align=left;verticalAlign=top;spacingLeft=4;spacingRight=4;overflow=hidden;rotatable=0;points=[[0,0.5],[1,0.5]];portConstraint=eastwest;whiteSpace=wrap;html=1;" parent="gsCkisf12Tj-iJhVvP90-77" vertex="1">
          <mxGeometry y="26" width="160" height="26" as="geometry" />
        </mxCell>
        <mxCell id="gsCkisf12Tj-iJhVvP90-79" value="" style="line;strokeWidth=1;fillColor=none;align=left;verticalAlign=middle;spacingTop=-1;spacingLeft=3;spacingRight=3;rotatable=0;labelPosition=right;points=[];portConstraint=eastwest;strokeColor=inherit;" parent="gsCkisf12Tj-iJhVvP90-77" vertex="1">
          <mxGeometry y="52" width="160" height="8" as="geometry" />
        </mxCell>
        <mxCell id="gsCkisf12Tj-iJhVvP90-80" value="+ area(): double" style="text;strokeColor=none;fillColor=none;align=left;verticalAlign=top;spacingLeft=4;spacingRight=4;overflow=hidden;rotatable=0;points=[[0,0.5],[1,0.5]];portConstraint=eastwest;whiteSpace=wrap;html=1;" parent="gsCkisf12Tj-iJhVvP90-77" vertex="1">
          <mxGeometry y="60" width="160" height="26" as="geometry" />
        </mxCell>
        <mxCell id="gsCkisf12Tj-iJhVvP90-81" value="Circle" style="swimlane;fontStyle=1;align=center;verticalAlign=top;childLayout=stackLayout;horizontal=1;startSize=26;horizontalStack=0;resizeParent=1;resizeParentMax=0;resizeLast=0;collapsible=1;marginBottom=0;whiteSpace=wrap;html=1;" parent="WIyWlLk6GJQsqaUBKTNV-1" vertex="1">
          <mxGeometry x="360" y="130" width="160" height="86" as="geometry" />
        </mxCell>
        <mxCell id="gsCkisf12Tj-iJhVvP90-82" value="+ r: int" style="text;strokeColor=none;fillColor=none;align=left;verticalAlign=top;spacingLeft=4;spacingRight=4;overflow=hidden;rotatable=0;points=[[0,0.5],[1,0.5]];portConstraint=eastwest;whiteSpace=wrap;html=1;" parent="gsCkisf12Tj-iJhVvP90-81" vertex="1">
          <mxGeometry y="26" width="160" height="26" as="geometry" />
        </mxCell>
        <mxCell id="gsCkisf12Tj-iJhVvP90-83" value="" style="line;strokeWidth=1;fillColor=none;align=left;verticalAlign=middle;spacingTop=-1;spacingLeft=3;spacingRight=3;rotatable=0;labelPosition=right;points=[];portConstraint=eastwest;strokeColor=inherit;" parent="gsCkisf12Tj-iJhVvP90-81" vertex="1">
          <mxGeometry y="52" width="160" height="8" as="geometry" />
        </mxCell>
        <mxCell id="gsCkisf12Tj-iJhVvP90-84" value="+ area():double" style="text;strokeColor=none;fillColor=none;align=left;verticalAlign=top;spacingLeft=4;spacingRight=4;overflow=hidden;rotatable=0;points=[[0,0.5],[1,0.5]];portConstraint=eastwest;whiteSpace=wrap;html=1;" parent="gsCkisf12Tj-iJhVvP90-81" vertex="1">
          <mxGeometry y="60" width="160" height="26" as="geometry" />
        </mxCell>
        <mxCell id="gsCkisf12Tj-iJhVvP90-85" value="Triangle" style="swimlane;fontStyle=1;align=center;verticalAlign=top;childLayout=stackLayout;horizontal=1;startSize=26;horizontalStack=0;resizeParent=1;resizeParentMax=0;resizeLast=0;collapsible=1;marginBottom=0;whiteSpace=wrap;html=1;" parent="WIyWlLk6GJQsqaUBKTNV-1" vertex="1">
          <mxGeometry x="360" y="450" width="160" height="104" as="geometry" />
        </mxCell>
        <mxCell id="gsCkisf12Tj-iJhVvP90-86" value="+ w: int&lt;div&gt;+ h: int&lt;/div&gt;&lt;div&gt;&lt;br&gt;&lt;/div&gt;" style="text;strokeColor=none;fillColor=none;align=left;verticalAlign=top;spacingLeft=4;spacingRight=4;overflow=hidden;rotatable=0;points=[[0,0.5],[1,0.5]];portConstraint=eastwest;whiteSpace=wrap;html=1;" parent="gsCkisf12Tj-iJhVvP90-85" vertex="1">
          <mxGeometry y="26" width="160" height="44" as="geometry" />
        </mxCell>
        <mxCell id="gsCkisf12Tj-iJhVvP90-87" value="" style="line;strokeWidth=1;fillColor=none;align=left;verticalAlign=middle;spacingTop=-1;spacingLeft=3;spacingRight=3;rotatable=0;labelPosition=right;points=[];portConstraint=eastwest;strokeColor=inherit;" parent="gsCkisf12Tj-iJhVvP90-85" vertex="1">
          <mxGeometry y="70" width="160" height="8" as="geometry" />
        </mxCell>
        <mxCell id="gsCkisf12Tj-iJhVvP90-88" value="+ area() : double" style="text;strokeColor=none;fillColor=none;align=left;verticalAlign=top;spacingLeft=4;spacingRight=4;overflow=hidden;rotatable=0;points=[[0,0.5],[1,0.5]];portConstraint=eastwest;whiteSpace=wrap;html=1;" parent="gsCkisf12Tj-iJhVvP90-85" vertex="1">
          <mxGeometry y="78" width="160" height="26" as="geometry" />
        </mxCell>
        <mxCell id="gsCkisf12Tj-iJhVvP90-96" value="" style="endArrow=block;endSize=16;endFill=0;html=1;rounded=0;" parent="WIyWlLk6GJQsqaUBKTNV-1" edge="1">
          <mxGeometry x="1" y="78" width="160" relative="1" as="geometry">
            <mxPoint x="520" y="150" as="sourcePoint" />
            <mxPoint x="680" y="150" as="targetPoint" />
            <mxPoint x="60" y="28" as="offset" />
          </mxGeometry>
        </mxCell>
        <mxCell id="gsCkisf12Tj-iJhVvP90-97" value="" style="endArrow=block;endSize=16;endFill=0;html=1;rounded=0;exitX=1.013;exitY=0.082;exitDx=0;exitDy=0;exitPerimeter=0;entryX=0;entryY=0.5;entryDx=0;entryDy=0;" parent="WIyWlLk6GJQsqaUBKTNV-1" source="gsCkisf12Tj-iJhVvP90-73" target="gsCkisf12Tj-iJhVvP90-78" edge="1">
          <mxGeometry x="1" y="78" width="160" relative="1" as="geometry">
            <mxPoint x="530" y="160" as="sourcePoint" />
            <mxPoint x="690" y="160" as="targetPoint" />
            <mxPoint x="60" y="28" as="offset" />
          </mxGeometry>
        </mxCell>
        <mxCell id="gsCkisf12Tj-iJhVvP90-98" value="" style="endArrow=block;endSize=16;endFill=0;html=1;rounded=0;entryX=-0.016;entryY=1.01;entryDx=0;entryDy=0;entryPerimeter=0;exitX=1;exitY=0.25;exitDx=0;exitDy=0;" parent="WIyWlLk6GJQsqaUBKTNV-1" source="gsCkisf12Tj-iJhVvP90-85" target="gsCkisf12Tj-iJhVvP90-78" edge="1">
          <mxGeometry x="1" y="78" width="160" relative="1" as="geometry">
            <mxPoint x="530" y="460" as="sourcePoint" />
            <mxPoint x="670" y="180" as="targetPoint" />
            <mxPoint x="60" y="28" as="offset" />
          </mxGeometry>
        </mxCell>
        <mxCell id="gsCkisf12Tj-iJhVvP90-99" value="Ch0415Ex11" style="swimlane;fontStyle=1;align=center;verticalAlign=top;childLayout=stackLayout;horizontal=1;startSize=26;horizontalStack=0;resizeParent=1;resizeParentMax=0;resizeLast=0;collapsible=1;marginBottom=0;whiteSpace=wrap;html=1;" parent="WIyWlLk6GJQsqaUBKTNV-1" vertex="1">
          <mxGeometry x="20" y="120" width="160" height="140" as="geometry" />
        </mxCell>
        <mxCell id="gsCkisf12Tj-iJhVvP90-100" value="&lt;div&gt;&amp;nbsp;&amp;nbsp;&lt;/div&gt;" style="text;strokeColor=none;fillColor=none;align=left;verticalAlign=top;spacingLeft=4;spacingRight=4;overflow=hidden;rotatable=0;points=[[0,0.5],[1,0.5]];portConstraint=eastwest;whiteSpace=wrap;html=1;" parent="gsCkisf12Tj-iJhVvP90-99" vertex="1">
          <mxGeometry y="26" width="160" height="44" as="geometry" />
        </mxCell>
        <mxCell id="gsCkisf12Tj-iJhVvP90-101" value="" style="line;strokeWidth=1;fillColor=none;align=left;verticalAlign=middle;spacingTop=-1;spacingLeft=3;spacingRight=3;rotatable=0;labelPosition=right;points=[];portConstraint=eastwest;strokeColor=inherit;" parent="gsCkisf12Tj-iJhVvP90-99" vertex="1">
          <mxGeometry y="70" width="160" height="8" as="geometry" />
        </mxCell>
        <mxCell id="gsCkisf12Tj-iJhVvP90-102" value="&lt;u&gt;+ main():&lt;/u&gt;void&lt;div&gt;&lt;u&gt;+ prtARea(): &lt;/u&gt;void&lt;/div&gt;" style="text;strokeColor=none;fillColor=none;align=left;verticalAlign=top;spacingLeft=4;spacingRight=4;overflow=hidden;rotatable=0;points=[[0,0.5],[1,0.5]];portConstraint=eastwest;whiteSpace=wrap;html=1;" parent="gsCkisf12Tj-iJhVvP90-99" vertex="1">
          <mxGeometry y="78" width="160" height="62" as="geometry" />
        </mxCell>
        <mxCell id="gsCkisf12Tj-iJhVvP90-107" value="" style="edgeStyle=none;html=1;endArrow=open;endSize=12;dashed=1;verticalAlign=bottom;rounded=0;entryX=-0.019;entryY=0.127;entryDx=0;entryDy=0;entryPerimeter=0;" parent="WIyWlLk6GJQsqaUBKTNV-1" target="gsCkisf12Tj-iJhVvP90-73" edge="1">
          <mxGeometry width="160" relative="1" as="geometry">
            <mxPoint x="180" y="160" as="sourcePoint" />
            <mxPoint x="360" y="150" as="targetPoint" />
          </mxGeometry>
        </mxCell>
        <mxCell id="gsCkisf12Tj-iJhVvP90-108" value="" style="edgeStyle=none;html=1;endArrow=open;endSize=12;dashed=1;verticalAlign=bottom;rounded=0;entryX=-0.019;entryY=-0.045;entryDx=0;entryDy=0;entryPerimeter=0;exitX=0.994;exitY=-0.045;exitDx=0;exitDy=0;exitPerimeter=0;" parent="WIyWlLk6GJQsqaUBKTNV-1" source="gsCkisf12Tj-iJhVvP90-100" target="gsCkisf12Tj-iJhVvP90-86" edge="1">
          <mxGeometry width="160" relative="1" as="geometry">
            <mxPoint x="210" y="160" as="sourcePoint" />
            <mxPoint x="370" y="160" as="targetPoint" />
          </mxGeometry>
        </mxCell>
      </root>
    </mxGraphModel>
  </diagram>
</mxfile>
